ffmpeg started on 2026-01-06 at 11:51:20
Report written to "D:\Convert\FFMetrics\reports\psnr_report-6.txt"
Log level: 32
Command line:
ffmpeg -hide_banner -nostdin -r 24000/1001 -i "F:\\Convert\\files\\Nanatsu_no_Maken_ga_Shihai_suru_[02]_[AniLibria_TV]_[WEBRip_1080p]_HEVC(53).mkv" -r 24000/1001 -i "F:\\Convert\\files\\Nanatsu_no_Maken_ga_Shihai_suru_[02]_[AniLibria_TV]_[WEBRip_1080p].mkv" -lavfi "[0:v]settb=AVTB,setpts=PTS-STARTPTS,format=pix_fmts=yuv420p10le,fps=24000/1001,scale=1920:1080:flags=bicubic[main];[1:v]settb=AVTB,setpts=PTS-STARTPTS,format=pix_fmts=yuv420p,fps=24000/1001,scale=1920:1080:flags=bicubic[ref];[main][ref]psnr=eof_action=endall:stats_file='D\\:/Convert/FFMetrics/logs/psnr_logfile-6.txt'" -f null -
Input #0, matroska,webm, from 'F:\Convert\files\Nanatsu_no_Maken_ga_Shihai_suru_[02]_[AniLibria_TV]_[WEBRip_1080p]_HEVC(53).mkv':
  Metadata:
    ENCODER         : Lavf61.7.100
  Duration: 00:23:40.14, start: -0.021000, bitrate: 1195 kb/s
  Stream #0:0: Video: hevc (Main 10), yuv420p10le(tv, bt709, progressive), 1920x1080 [SAR 1:1 DAR 16:9], 23.98 fps, 23.98 tbr, 1k tbn (default)
      Metadata:
        title           : Original
        ENCODER         : Lavc61.19.100 libx265
        BPS             : 955898
        DURATION        : 00:23:40.043708333
        NUMBER_OF_FRAMES: 34047
        NUMBER_OF_BYTES : 169677064
        _STATISTICS_WRITING_APP: mkvpropedit v94.0 ('Initiate') 64-bit
        _STATISTICS_WRITING_DATE_UTC: 2026-01-05 15:44:56
        _STATISTICS_TAGS: BPS DURATION NUMBER_OF_FRAMES NUMBER_OF_BYTES
  Stream #0:1(rus): Audio: aac (LC), 48000 Hz, stereo, fltp (default)
      Metadata:
        title           : AniLibria.TV
        ENCODER         : Lavc61.19.100 aac
        BPS             : 194075
        DURATION        : 00:23:40.117000000
        NUMBER_OF_FRAMES: 66569
        NUMBER_OF_BYTES : 34451214
        _STATISTICS_WRITING_APP: mkvpropedit v94.0 ('Initiate') 64-bit
        _STATISTICS_WRITING_DATE_UTC: 2026-01-05 15:44:56
        _STATISTICS_TAGS: BPS DURATION NUMBER_OF_FRAMES NUMBER_OF_BYTES
  Stream #0:2(rus): Subtitle: ass (ssa) (default)
      Metadata:
        title           : Надписи
        BPS             : 340
        DURATION        : 00:22:14.570000000
        NUMBER_OF_FRAMES: 381
        NUMBER_OF_BYTES : 56799
        _STATISTICS_WRITING_APP: mkvpropedit v94.0 ('Initiate') 64-bit
        _STATISTICS_WRITING_DATE_UTC: 2026-01-05 15:44:56
        _STATISTICS_TAGS: BPS DURATION NUMBER_OF_FRAMES NUMBER_OF_BYTES
  Stream #0:3(rus): Subtitle: ass (ssa)
      Metadata:
        title           : Субтитры
        BPS             : 489
        DURATION        : 00:23:37.340000000
        NUMBER_OF_FRAMES: 749
        NUMBER_OF_BYTES : 86800
        _STATISTICS_WRITING_APP: mkvpropedit v94.0 ('Initiate') 64-bit
        _STATISTICS_WRITING_DATE_UTC: 2026-01-05 15:44:56
        _STATISTICS_TAGS: BPS DURATION NUMBER_OF_FRAMES NUMBER_OF_BYTES
  Stream #0:4: Attachment: ttf
      Metadata:
        filename        : AGPMOD.TTF
        mimetype        : application/x-truetype-font
  Stream #0:5: Attachment: ttf
      Metadata:
        filename        : DFPSNGyosho-W5-CP-Spec.ttf
        mimetype        : application/x-truetype-font
  Stream #0:6: Attachment: ttf
      Metadata:
        filename        : Modernist One.ttf
        mimetype        : application/x-truetype-font
  Stream #0:7: Attachment: ttf
      Metadata:
        filename        : 1125177.TTF
        mimetype        : application/x-truetype-font
  Stream #0:8: Attachment: ttf
      Metadata:
        filename        : Roboto-Medium.ttf
        mimetype        : application/x-truetype-font
  Stream #0:9: Attachment: ttf
      Metadata:
        filename        : Roboto-MediumItalic.ttf
        mimetype        : application/x-truetype-font
  Stream #0:10: Attachment: ttf
      Metadata:
        filename        : arial.ttf
        mimetype        : application/x-truetype-font
  Stream #0:11: Attachment: ttf
      Metadata:
        filename        : arialbd.ttf
        mimetype        : application/x-truetype-font
  Stream #0:12: Attachment: ttf
      Metadata:
        filename        : comic.ttf
        mimetype        : application/x-truetype-font
  Stream #0:13: Attachment: ttf
      Metadata:
        filename        : comicbd.ttf
        mimetype        : application/x-truetype-font
  Stream #0:14: Attachment: ttf
      Metadata:
        filename        : times.ttf
        mimetype        : application/x-truetype-font
  Stream #0:15: Attachment: ttf
      Metadata:
        filename        : timesbd.ttf
        mimetype        : application/x-truetype-font
  Stream #0:16: Attachment: ttf
      Metadata:
        filename        : trebuc.ttf
        mimetype        : application/x-truetype-font
  Stream #0:17: Attachment: ttf
      Metadata:
        filename        : trebucbd.ttf
        mimetype        : application/x-truetype-font
  Stream #0:18: Attachment: ttf
      Metadata:
        filename        : verdana.ttf
        mimetype        : application/x-truetype-font
  Stream #0:19: Attachment: ttf
      Metadata:
        filename        : verdanab.ttf
        mimetype        : application/x-truetype-font
  Stream #0:20: Attachment: ttf
      Metadata:
        filename        : CONSOLA.TTF
        mimetype        : application/x-truetype-font
  Stream #0:21: Attachment: ttf
      Metadata:
        filename        : CONSOLAB.TTF
        mimetype        : application/x-truetype-font
Input #1, matroska,webm, from 'F:\Convert\files\Nanatsu_no_Maken_ga_Shihai_suru_[02]_[AniLibria_TV]_[WEBRip_1080p].mkv':
  Metadata:
    encoder         : libebml v1.4.4 + libmatroska v1.7.1
    creation_time   : 2023-07-15T11:47:58.000000Z
  Duration: 00:23:40.12, start: 0.000000, bitrate: 8335 kb/s
  Stream #1:0: Video: h264 (High), yuv420p(tv, bt709, progressive), 1920x1080 [SAR 1:1 DAR 16:9], 23.98 fps, 23.98 tbr, 1k tbn (default)
      Metadata:
        title           : Original
        BPS             : 7971709
        DURATION        : 00:23:40.045000000
        NUMBER_OF_FRAMES: 34047
        NUMBER_OF_BYTES : 1415023222
        _STATISTICS_WRITING_APP: mkvmerge v77.0 ('Elemental') 64-bit
        _STATISTICS_WRITING_DATE_UTC: 2023-07-15 11:47:58
        _STATISTICS_TAGS: BPS DURATION NUMBER_OF_FRAMES NUMBER_OF_BYTES
  Stream #1:1(rus): Audio: aac (LC), 48000 Hz, stereo, fltp (default)
      Metadata:
        title           : AniLibria.TV
        BPS             : 191999
        DURATION        : 00:23:40.117000000
        NUMBER_OF_FRAMES: 66568
        NUMBER_OF_BYTES : 34082731
        _STATISTICS_WRITING_APP: mkvmerge v77.0 ('Elemental') 64-bit
        _STATISTICS_WRITING_DATE_UTC: 2023-07-15 11:47:58
        _STATISTICS_TAGS: BPS DURATION NUMBER_OF_FRAMES NUMBER_OF_BYTES
  Stream #1:2(jpn): Audio: aac (LC), 44100 Hz, stereo, fltp
      Metadata:
        title           : Original
        BPS             : 128000
        DURATION        : 00:23:40.109000000
        NUMBER_OF_FRAMES: 61159
        NUMBER_OF_BYTES : 22721748
        _STATISTICS_WRITING_APP: mkvmerge v77.0 ('Elemental') 64-bit
        _STATISTICS_WRITING_DATE_UTC: 2023-07-15 11:47:58
        _STATISTICS_TAGS: BPS DURATION NUMBER_OF_FRAMES NUMBER_OF_BYTES
  Stream #1:3(rus): Subtitle: ass (ssa) (default)
      Metadata:
        title           : Надписи
        BPS             : 340
        DURATION        : 00:22:14.570000000
        NUMBER_OF_FRAMES: 381
        NUMBER_OF_BYTES : 56799
        _STATISTICS_WRITING_APP: mkvmerge v77.0 ('Elemental') 64-bit
        _STATISTICS_WRITING_DATE_UTC: 2023-07-15 11:47:58
        _STATISTICS_TAGS: BPS DURATION NUMBER_OF_FRAMES NUMBER_OF_BYTES
  Stream #1:4(rus): Subtitle: ass (ssa)
      Metadata:
        title           : Субтитры
        BPS             : 489
        DURATION        : 00:23:37.340000000
        NUMBER_OF_FRAMES: 749
        NUMBER_OF_BYTES : 86800
        _STATISTICS_WRITING_APP: mkvmerge v77.0 ('Elemental') 64-bit
        _STATISTICS_WRITING_DATE_UTC: 2023-07-15 11:47:58
        _STATISTICS_TAGS: BPS DURATION NUMBER_OF_FRAMES NUMBER_OF_BYTES
  Stream #1:5: Attachment: ttf
      Metadata:
        filename        : AGPMOD.TTF
        mimetype        : application/x-truetype-font
  Stream #1:6: Attachment: ttf
      Metadata:
        filename        : DFPSNGyosho-W5-CP-Spec.ttf
        mimetype        : application/x-truetype-font
  Stream #1:7: Attachment: ttf
      Metadata:
        filename        : Modernist One.ttf
        mimetype        : application/x-truetype-font
  Stream #1:8: Attachment: ttf
      Metadata:
        filename        : 1125177.TTF
        mimetype        : application/x-truetype-font
  Stream #1:9: Attachment: ttf
      Metadata:
        filename        : Roboto-Medium.ttf
        mimetype        : application/x-truetype-font
  Stream #1:10: Attachment: ttf
      Metadata:
        filename        : Roboto-MediumItalic.ttf
        mimetype        : application/x-truetype-font
  Stream #1:11: Attachment: ttf
      Metadata:
        filename        : arial.ttf
        mimetype        : application/x-truetype-font
  Stream #1:12: Attachment: ttf
      Metadata:
        filename        : arialbd.ttf
        mimetype        : application/x-truetype-font
  Stream #1:13: Attachment: ttf
      Metadata:
        filename        : comic.ttf
        mimetype        : application/x-truetype-font
  Stream #1:14: Attachment: ttf
      Metadata:
        filename        : comicbd.ttf
        mimetype        : application/x-truetype-font
  Stream #1:15: Attachment: ttf
      Metadata:
        filename        : times.ttf
        mimetype        : application/x-truetype-font
  Stream #1:16: Attachment: ttf
      Metadata:
        filename        : timesbd.ttf
        mimetype        : application/x-truetype-font
  Stream #1:17: Attachment: ttf
      Metadata:
        filename        : trebuc.ttf
        mimetype        : application/x-truetype-font
  Stream #1:18: Attachment: ttf
      Metadata:
        filename        : trebucbd.ttf
        mimetype        : application/x-truetype-font
  Stream #1:19: Attachment: ttf
      Metadata:
        filename        : verdana.ttf
        mimetype        : application/x-truetype-font
  Stream #1:20: Attachment: ttf
      Metadata:
        filename        : verdanab.ttf
        mimetype        : application/x-truetype-font
  Stream #1:21: Attachment: ttf
      Metadata:
        filename        : CONSOLA.TTF
        mimetype        : application/x-truetype-font
  Stream #1:22: Attachment: ttf
      Metadata:
        filename        : CONSOLAB.TTF
        mimetype        : application/x-truetype-font
Stream mapping:
  Stream #0:0 (hevc) -> settb:default
  Stream #1:0 (h264) -> settb:default
  psnr:default -> Stream #0:0 (wrapped_avframe)
  Stream #0:1 -> #0:1 (aac (native) -> pcm_s16le (native))
Output #0, null, to 'pipe:':
  Metadata:
    encoder         : Lavf61.7.100
  Stream #0:0: Video: wrapped_avframe, yuv420p10le(tv, bt709, progressive), 1920x1080 [SAR 1:1 DAR 16:9], q=2-31, 200 kb/s, 23.98 fps, 23.98 tbn
      Metadata:
        encoder         : Lavc61.19.100 wrapped_avframe
  Stream #0:1(rus): Audio: pcm_s16le, 48000 Hz, stereo, s16, 1536 kb/s (default)
      Metadata:
        title           : AniLibria.TV
        _STATISTICS_TAGS: BPS DURATION NUMBER_OF_FRAMES NUMBER_OF_BYTES
        BPS             : 194075
        DURATION        : 00:23:40.117000000
        NUMBER_OF_FRAMES: 66569
        NUMBER_OF_BYTES : 34451214
        _STATISTICS_WRITING_APP: mkvpropedit v94.0 ('Initiate') 64-bit
        _STATISTICS_WRITING_DATE_UTC: 2026-01-05 15:44:56
        encoder         : Lavc61.19.100 pcm_s16le
frame=  188 fps=0.0 q=-0.0 size=N/A time=00:00:07.84 bitrate=N/A speed=15.2x    frame=  466 fps=454 q=-0.0 size=N/A time=00:00:19.43 bitrate=N/A speed=18.9x    frame=  766 fps=493 q=-0.0 size=N/A time=00:00:31.94 bitrate=N/A speed=20.6x    frame= 1037 fps=503 q=-0.0 size=N/A time=00:00:43.25 bitrate=N/A speed=  21x    frame= 1299 fps=505 q=-0.0 size=N/A time=00:00:54.17 bitrate=N/A speed=  21x    frame= 1575 fps=508 q=-0.0 size=N/A time=00:01:05.69 bitrate=N/A speed=21.2x    frame= 1867 fps=515 q=-0.0 size=N/A time=00:01:17.86 bitrate=N/A speed=21.5x    frame= 2111 fps=510 q=-0.0 size=N/A time=00:01:28.04 bitrate=N/A speed=21.3x    frame= 2298 fps=494 q=-0.0 size=N/A time=00:01:35.84 bitrate=N/A speed=20.6x    frame= 2523 fps=487 q=-0.0 size=N/A time=00:01:45.23 bitrate=N/A speed=20.3x    frame= 2742 fps=482 q=-0.0 size=N/A time=00:01:54.36 bitrate=N/A speed=20.1x    frame= 2946 fps=475 q=-0.0 size=N/A time=00:02:02.87 bitrate=N/A speed=19.8x    frame= 3118 fps=464 q=-0.0 size=N/A time=00:02:10.04 bitrate=N/A speed=19.3x    frame= 3308 fps=457 q=-0.0 size=N/A time=00:02:17.97 bitrate=N/A speed=19.1x    frame= 3501 fps=452 q=-0.0 size=N/A time=00:02:26.02 bitrate=N/A speed=18.9x    frame= 3712 fps=449 q=-0.0 size=N/A time=00:02:34.82 bitrate=N/A speed=18.7x    frame= 3945 fps=448 q=-0.0 size=N/A time=00:02:44.53 bitrate=N/A speed=18.7x    frame= 4155 fps=446 q=-0.0 size=N/A time=00:02:53.29 bitrate=N/A speed=18.6x    frame= 4397 fps=448 q=-0.0 size=N/A time=00:03:03.39 bitrate=N/A speed=18.7x    frame= 4681 fps=452 q=-0.0 size=N/A time=00:03:15.23 bitrate=N/A speed=18.9x    frame= 4911 fps=452 q=-0.0 size=N/A time=00:03:24.82 bitrate=N/A speed=18.9x    frame= 5094 fps=448 q=-0.0 size=N/A time=00:03:32.46 bitrate=N/A speed=18.7x    frame= 5250 fps=441 q=-0.0 size=N/A time=00:03:38.96 bitrate=N/A speed=18.4x    frame= 5510 fps=443 q=-0.0 size=N/A time=00:03:49.81 bitrate=N/A speed=18.5x    frame= 5767 fps=446 q=-0.0 size=N/A time=00:04:00.53 bitrate=N/A speed=18.6x    frame= 6047 fps=450 q=-0.0 size=N/A time=00:04:12.21 bitrate=N/A speed=18.8x    frame= 6335 fps=453 q=-0.0 size=N/A time=00:04:24.22 bitrate=N/A speed=18.9x    frame= 6603 fps=456 q=-0.0 size=N/A time=00:04:35.40 bitrate=N/A speed=  19x    frame= 6874 fps=458 q=-0.0 size=N/A time=00:04:46.70 bitrate=N/A speed=19.1x    frame= 7139 fps=460 q=-0.0 size=N/A time=00:04:57.75 bitrate=N/A speed=19.2x    frame= 7419 fps=463 q=-0.0 size=N/A time=00:05:09.43 bitrate=N/A speed=19.3x    frame= 7679 fps=464 q=-0.0 size=N/A time=00:05:20.27 bitrate=N/A speed=19.4x    frame= 7961 fps=467 q=-0.0 size=N/A time=00:05:32.04 bitrate=N/A speed=19.5x    frame= 8222 fps=468 q=-0.0 size=N/A time=00:05:42.92 bitrate=N/A speed=19.5x    frame= 8513 fps=471 q=-0.0 size=N/A time=00:05:55.06 bitrate=N/A speed=19.6x    frame= 8784 fps=472 q=-0.0 size=N/A time=00:06:06.36 bitrate=N/A speed=19.7x    frame= 9018 fps=471 q=-0.0 size=N/A time=00:06:16.12 bitrate=N/A speed=19.7x    frame= 9270 fps=472 q=-0.0 size=N/A time=00:06:26.63 bitrate=N/A speed=19.7x    frame= 9514 fps=472 q=-0.0 size=N/A time=00:06:36.81 bitrate=N/A speed=19.7x    frame= 9791 fps=474 q=-0.0 size=N/A time=00:06:48.36 bitrate=N/A speed=19.8x    frame=10018 fps=473 q=-0.0 size=N/A time=00:06:57.83 bitrate=N/A speed=19.7x    frame=10241 fps=472 q=-0.0 size=N/A time=00:07:07.13 bitrate=N/A speed=19.7x    frame=10432 fps=470 q=-0.0 size=N/A time=00:07:15.10 bitrate=N/A speed=19.6x    frame=10629 fps=467 q=-0.0 size=N/A time=00:07:23.31 bitrate=N/A speed=19.5x    frame=10820 fps=465 q=-0.0 size=N/A time=00:07:31.28 bitrate=N/A speed=19.4x    frame=10997 fps=463 q=-0.0 size=N/A time=00:07:38.66 bitrate=N/A speed=19.3x    frame=11216 fps=462 q=-0.0 size=N/A time=00:07:47.80 bitrate=N/A speed=19.3x    frame=11432 fps=461 q=-0.0 size=N/A time=00:07:56.80 bitrate=N/A speed=19.2x    frame=11614 fps=459 q=-0.0 size=N/A time=00:08:04.40 bitrate=N/A speed=19.1x    frame=11849 fps=459 q=-0.0 size=N/A time=00:08:14.20 bitrate=N/A speed=19.1x    frame=12124 fps=460 q=-0.0 size=N/A time=00:08:25.67 bitrate=N/A speed=19.2x    frame=12376 fps=461 q=-0.0 size=N/A time=00:08:36.18 bitrate=N/A speed=19.2x    frame=12567 fps=459 q=-0.0 size=N/A time=00:08:44.14 bitrate=N/A speed=19.2x    frame=12782 fps=458 q=-0.0 size=N/A time=00:08:53.11 bitrate=N/A speed=19.1x    frame=13026 fps=459 q=-0.0 size=N/A time=00:09:03.29 bitrate=N/A speed=19.1x    frame=13295 fps=460 q=-0.0 size=N/A time=00:09:14.51 bitrate=N/A speed=19.2x    frame=13562 fps=461 q=-0.0 size=N/A time=00:09:25.64 bitrate=N/A speed=19.2x    frame=13831 fps=462 q=-0.0 size=N/A time=00:09:36.86 bitrate=N/A speed=19.3x    frame=14084 fps=462 q=-0.0 size=N/A time=00:09:47.42 bitrate=N/A speed=19.3x    frame=14351 fps=463 q=-0.0 size=N/A time=00:09:58.55 bitrate=N/A speed=19.3x    frame=14624 fps=464 q=-0.0 size=N/A time=00:10:09.94 bitrate=N/A speed=19.4x    frame=14880 fps=465 q=-0.0 size=N/A time=00:10:20.62 bitrate=N/A speed=19.4x    frame=15167 fps=466 q=-0.0 size=N/A time=00:10:32.59 bitrate=N/A speed=19.4x    frame=15429 fps=467 q=-0.0 size=N/A time=00:10:43.51 bitrate=N/A speed=19.5x    frame=15671 fps=467 q=-0.0 size=N/A time=00:10:53.61 bitrate=N/A speed=19.5x    frame=15897 fps=467 q=-0.0 size=N/A time=00:11:03.03 bitrate=N/A speed=19.5x    frame=16170 fps=467 q=-0.0 size=N/A time=00:11:14.42 bitrate=N/A speed=19.5x    frame=16362 fps=466 q=-0.0 size=N/A time=00:11:22.43 bitrate=N/A speed=19.4x    frame=16614 fps=466 q=-0.0 size=N/A time=00:11:32.94 bitrate=N/A speed=19.4x    frame=16798 fps=465 q=-0.0 size=N/A time=00:11:40.61 bitrate=N/A speed=19.4x    frame=17025 fps=464 q=-0.0 size=N/A time=00:11:50.08 bitrate=N/A speed=19.4x    frame=17218 fps=463 q=-0.0 size=N/A time=00:11:58.13 bitrate=N/A speed=19.3x    frame=17448 fps=463 q=-0.0 size=N/A time=00:12:07.72 bitrate=N/A speed=19.3x    frame=17703 fps=463 q=-0.0 size=N/A time=00:12:18.36 bitrate=N/A speed=19.3x    frame=17932 fps=463 q=-0.0 size=N/A time=00:12:27.91 bitrate=N/A speed=19.3x    frame=18133 fps=462 q=-0.0 size=N/A time=00:12:36.29 bitrate=N/A speed=19.3x    frame=18384 fps=462 q=-0.0 size=N/A time=00:12:46.76 bitrate=N/A speed=19.3x    frame=18627 fps=462 q=-0.0 size=N/A time=00:12:56.90 bitrate=N/A speed=19.3x    frame=18832 fps=462 q=-0.0 size=N/A time=00:13:05.45 bitrate=N/A speed=19.3x    frame=19067 fps=461 q=-0.0 size=N/A time=00:13:15.25 bitrate=N/A speed=19.2x    frame=19330 fps=462 q=-0.0 size=N/A time=00:13:26.22 bitrate=N/A speed=19.3x    frame=19576 fps=462 q=-0.0 size=N/A time=00:13:36.48 bitrate=N/A speed=19.3x    frame=19856 fps=463 q=-0.0 size=N/A time=00:13:48.16 bitrate=N/A speed=19.3x    frame=20136 fps=464 q=-0.0 size=N/A time=00:13:59.83 bitrate=N/A speed=19.4x    frame=20399 fps=465 q=-0.0 size=N/A time=00:14:10.80 bitrate=N/A speed=19.4x    frame=20677 fps=466 q=-0.0 size=N/A time=00:14:22.40 bitrate=N/A speed=19.4x    frame=20927 fps=466 q=-0.0 size=N/A time=00:14:32.83 bitrate=N/A speed=19.4x    frame=21213 fps=467 q=-0.0 size=N/A time=00:14:44.75 bitrate=N/A speed=19.5x    frame=21455 fps=467 q=-0.0 size=N/A time=00:14:54.85 bitrate=N/A speed=19.5x    frame=21726 fps=467 q=-0.0 size=N/A time=00:15:06.15 bitrate=N/A speed=19.5x    frame=21959 fps=467 q=-0.0 size=N/A time=00:15:15.87 bitrate=N/A speed=19.5x    frame=22188 fps=467 q=-0.0 size=N/A time=00:15:25.42 bitrate=N/A speed=19.5x    frame=22478 fps=468 q=-0.0 size=N/A time=00:15:37.51 bitrate=N/A speed=19.5x    frame=22789 fps=469 q=-0.0 size=N/A time=00:15:50.49 bitrate=N/A speed=19.6x    frame=23058 fps=470 q=-0.0 size=N/A time=00:16:01.75 bitrate=N/A speed=19.6x    frame=23334 fps=471 q=-0.0 size=N/A time=00:16:13.22 bitrate=N/A speed=19.6x    frame=23619 fps=471 q=-0.0 size=N/A time=00:16:25.10 bitrate=N/A speed=19.7x    frame=23918 fps=472 q=-0.0 size=N/A time=00:16:37.57 bitrate=N/A speed=19.7x    frame=24221 fps=474 q=-0.0 size=N/A time=00:16:50.21 bitrate=N/A speed=19.8x    frame=24500 fps=474 q=-0.0 size=N/A time=00:17:01.85 bitrate=N/A speed=19.8x    frame=24780 fps=475 q=-0.0 size=N/A time=00:17:13.53 bitrate=N/A speed=19.8x    frame=25007 fps=475 q=-0.0 size=N/A time=00:17:23.00 bitrate=N/A speed=19.8x    frame=25298 fps=476 q=-0.0 size=N/A time=00:17:35.13 bitrate=N/A speed=19.8x    frame=25592 fps=476 q=-0.0 size=N/A time=00:17:47.39 bitrate=N/A speed=19.9x    frame=25819 fps=476 q=-0.0 size=N/A time=00:17:56.86 bitrate=N/A speed=19.9x    frame=26071 fps=476 q=-0.0 size=N/A time=00:18:07.37 bitrate=N/A speed=19.9x    frame=26334 fps=477 q=-0.0 size=N/A time=00:18:18.34 bitrate=N/A speed=19.9x    frame=26591 fps=477 q=-0.0 size=N/A time=00:18:29.06 bitrate=N/A speed=19.9x    frame=26859 fps=477 q=-0.0 size=N/A time=00:18:40.24 bitrate=N/A speed=19.9x    frame=27109 fps=477 q=-0.0 size=N/A time=00:18:50.67 bitrate=N/A speed=19.9x    frame=27400 fps=478 q=-0.0 size=N/A time=00:19:02.80 bitrate=N/A speed=19.9x    frame=27684 fps=479 q=-0.0 size=N/A time=00:19:14.65 bitrate=N/A speed=  20x    frame=27951 fps=479 q=-0.0 size=N/A time=00:19:25.78 bitrate=N/A speed=  20x    frame=28243 fps=480 q=-0.0 size=N/A time=00:19:37.96 bitrate=N/A speed=  20x    frame=28537 fps=480 q=-0.0 size=N/A time=00:19:50.23 bitrate=N/A speed=  20x    frame=28811 fps=481 q=-0.0 size=N/A time=00:20:01.65 bitrate=N/A speed=20.1x    frame=29084 fps=481 q=-0.0 size=N/A time=00:20:13.04 bitrate=N/A speed=20.1x    frame=29355 fps=482 q=-0.0 size=N/A time=00:20:24.34 bitrate=N/A speed=20.1x    frame=29635 fps=482 q=-0.0 size=N/A time=00:20:36.02 bitrate=N/A speed=20.1x    frame=29926 fps=483 q=-0.0 size=N/A time=00:20:48.16 bitrate=N/A speed=20.1x    frame=30181 fps=483 q=-0.0 size=N/A time=00:20:58.79 bitrate=N/A speed=20.1x    frame=30461 fps=483 q=-0.0 size=N/A time=00:21:10.47 bitrate=N/A speed=20.2x    frame=30717 fps=484 q=-0.0 size=N/A time=00:21:21.15 bitrate=N/A speed=20.2x    frame=30974 fps=484 q=-0.0 size=N/A time=00:21:31.87 bitrate=N/A speed=20.2x    frame=31277 fps=485 q=-0.0 size=N/A time=00:21:44.51 bitrate=N/A speed=20.2x    frame=31538 fps=485 q=-0.0 size=N/A time=00:21:55.39 bitrate=N/A speed=20.2x    frame=31801 fps=485 q=-0.0 size=N/A time=00:22:06.36 bitrate=N/A speed=20.2x    frame=32072 fps=485 q=-0.0 size=N/A time=00:22:17.66 bitrate=N/A speed=20.2x    frame=32362 fps=486 q=-0.0 size=N/A time=00:22:29.76 bitrate=N/A speed=20.3x    frame=32642 fps=486 q=-0.0 size=N/A time=00:22:41.44 bitrate=N/A speed=20.3x    frame=32910 fps=487 q=-0.0 size=N/A time=00:22:52.62 bitrate=N/A speed=20.3x    frame=33189 fps=487 q=-0.0 size=N/A time=00:23:04.25 bitrate=N/A speed=20.3x    frame=33453 fps=487 q=-0.0 size=N/A time=00:23:15.26 bitrate=N/A speed=20.3x    frame=33718 fps=487 q=-0.0 size=N/A time=00:23:26.32 bitrate=N/A speed=20.3x    frame=33983 fps=487 q=-0.0 size=N/A time=00:23:37.37 bitrate=N/A speed=20.3x    [Parsed_psnr_10 @ 000001b47948bcc0] PSNR y:48.933609 u:48.502261 v:48.363825 average:48.760065 min:39.961998 max:76.830322
[out#0/null @ 000001b4625d9b40] video:14630KiB audio:266276KiB subtitle:0KiB other streams:0KiB global headers:0KiB muxing overhead: unknown
frame=34047 fps=488 q=-0.0 Lsize=N/A time=00:23:40.04 bitrate=N/A speed=20.3x    
